<?xml version="1.0" encoding="utf-8"?>
<!-- Generator: Adobe Illustrator 16.0.0, SVG Export Plug-In . SVG Version: 6.00 Build 0)  -->
<!DOCTYPE svg PUBLIC "-//W3C//DTD SVG 1.1//EN" "http://www.w3.org/Graphics/SVG/1.1/DTD/svg11.dtd">
<svg version="1.1" id="Layer_1" xmlns="http://www.w3.org/2000/svg" xmlns:xlink="http://www.w3.org/1999/xlink" x="0px" y="0px"
	 width="3840px" height="2160px" viewBox="0 0 3840 2160" enable-background="new 0 0 3840 2160" xml:space="preserve">
<g>
	<path d="M3232.899,957.432h33.164l112.404,175.063V957.432H3420v245.117h-33.163l-112.404-174.885v174.885h-41.534V957.432z
		 M3084.522,957.432h38.684v245.117h-38.684V957.432z M2921.834,1107.543l-34.838-114.886l-34.917,114.886H2921.834z
		 M2861.487,957.432h52.296l80.437,245.117h-43.287l-19.053-58.176h-89.366l-18.813,58.116h-42.41L2861.487,957.432z
		 M2503.865,957.432h41.215v105.947h104.353V957.432h41.534v245.117h-41.534v-102.26H2545.08v102.26h-41.215V957.432z
		 M2283.501,1192.684c-12.257-6.537-21.585-19.053-28.021-37.309c-6.478-18.336-9.666-44.803-9.666-79.4
		c0-32.925,3.269-58.435,9.806-76.62c6.617-18.166,16.183-30.752,28.858-37.857c12.675-7.025,29.018-10.532,49.187-10.532
		c13.154,0,26.367,1.046,39.461,3.208c11.48,1.754,22.8,4.226,33.961,7.484v31.877c-6.617-1.266-15.943-2.551-28.062-3.646
		c-12.356-1.126-24.713-1.675-37.149-1.675c-14.429,0-25.51,2.303-33.242,6.916c-7.813,4.554-13.394,13.084-16.9,25.59
		c-3.508,12.536-5.262,31.19-5.262,55.894c0,24.713,1.674,43.367,4.942,55.963c3.269,12.516,8.769,21.046,16.343,25.749
		c7.652,4.703,18.973,7.016,33.801,7.016c21.922,0.238,43.766-1.017,65.529-3.668v31.809c-19.85,5.979-44.643,9.009-74.379,9.068
		C2312.141,1202.549,2295.718,1199.3,2283.501,1192.684z M2081.033,1075.416c10.683,0,18.974-3.108,24.873-9.167
		c5.898-6.059,8.928-16.98,8.928-32.695c0-15.057-2.949-25.421-8.928-31.081c-5.899-5.59-14.19-8.36-24.873-8.28h-52.137v81.064
		L2081.033,1075.416z M1987.762,957.432h100.287c20.967,0,37.548,5.49,49.824,16.412c12.277,11.021,18.416,30.861,18.416,59.63
		c0,21.694-3.906,37.559-11.56,47.443c-7.733,10.044-18.256,17.458-30.294,21.364l47.514,100.268h-41.773l-42.81-94.288
		c-13.632,0-29.735-0.239-48.47-0.718v95.006h-41.135V957.432z M1819.793,1158.643c8.211-4.464,14.101-12.834,17.697-25.271
		c3.508-12.356,5.352-31.011,5.352-55.783c0-25.68-1.844-44.912-5.601-57.667c-3.647-12.755-9.546-21.195-17.607-25.511
		c-8.042-4.135-19.86-6.277-35.307-6.277c-14.997,0-26.556,2.143-34.617,6.526c-8.032,4.306-14.011,12.835-17.768,25.431
		c-3.817,12.586-5.74,31.818-5.74,57.498c0,25.012,1.754,43.586,5.182,55.783c3.518,12.197,9.327,20.647,17.449,25.271
		c8.062,4.465,19.939,6.697,35.634,6.697C1799.853,1165.34,1811.652,1163.107,1819.793,1158.643z M1727.249,1193.002
		c-14.131-6.377-24.803-18.475-31.988-36.432c-7.154-17.857-10.752-44.084-10.752-78.842c0-34.599,3.678-61.065,10.922-79.391
		c7.265-18.355,18.017-30.782,32.117-37.469c14.13-6.557,33.083-9.904,56.779-9.904c23.757,0,42.88,3.288,57.309,9.904
		c14.26,6.607,24.952,18.954,32.117,37.14c7.185,18.266,10.782,44.713,10.782,79.64c0,34.598-3.678,60.905-10.922,78.842
		c-7.344,18.037-17.937,30.135-31.978,36.512c-14.021,6.378-33.083,9.547-57.309,9.547
		C1760.163,1202.549,1741.1,1199.38,1727.249,1193.002z M1400.628,957.432h41.205v105.947h104.373V957.432h41.533v245.117h-41.533
		v-102.26h-104.373v102.26h-41.205V957.432z M1206.123,994.252h-70.004v-36.82h180.635v36.9h-69.675v208.217h-40.956V994.252z"/>
	<g>
		<linearGradient id="SVGID_1_" gradientUnits="userSpaceOnUse" x1="420.2776" y1="912.8638" x2="982.3306" y2="912.8638">
			<stop  offset="0" style="stop-color:#00CCFE"/>
			<stop  offset="1" style="stop-color:#33FF9A"/>
		</linearGradient>
		<polygon fill="url(#SVGID_1_)" points="585.099,923.949 727.328,1068.312 981.305,757.416 		"/>
		<linearGradient id="SVGID_2_" gradientUnits="userSpaceOnUse" x1="420.0002" y1="1235.4473" x2="982.0532" y2="1235.4473">
			<stop  offset="0" style="stop-color:#00CCFE"/>
			<stop  offset="1" style="stop-color:#33FF9A"/>
		</linearGradient>
		<polygon fill="url(#SVGID_2_)" points="420,1402.584 869.448,1212.932 727.328,1068.312 		"/>
	</g>
</g>
</svg>
