<?xml version="1.0" encoding="UTF-8" standalone="no"?>
<svg
   clip-rule="evenodd"
   fill-rule="evenodd"
   stroke-linejoin="round"
   stroke-miterlimit="2"
   viewBox="0 0 495 560"
   version="1.1"
   id="svg9"
   sodipodi:docname="ThorChartsLogoBlack.svg"
   inkscape:version="1.2.1 (9c6d41e410, 2022-07-14)"
   inkscape:export-filename="ThorCharts.png"
   inkscape:export-xdpi="300"
   inkscape:export-ydpi="300"
   width="495"
   height="560"
   xmlns:inkscape="http://www.inkscape.org/namespaces/inkscape"
   xmlns:sodipodi="http://sodipodi.sourceforge.net/DTD/sodipodi-0.dtd"
   xmlns="http://www.w3.org/2000/svg"
   xmlns:svg="http://www.w3.org/2000/svg">
  <defs
     id="defs13">
    <mask
       maskUnits="userSpaceOnUse"
       id="mask21497">
      <g
         id="g21515"
         transform="matrix(1.0759259,0,0,1.0759259,-174.60879,-69.935186)">
        <rect
           style="fill:#ffffff;fill-opacity:1;stroke:#ffffff;stroke-width:22.5;stroke-dasharray:none;stroke-opacity:1"
           id="rect21499"
           width="628.95868"
           height="462.80991"
           x="-16.198347"
           y="-20.826447" />
        <g
           id="g21513"
           style="stroke:#000000;stroke-opacity:1">
          <path
             style="mix-blend-mode:normal;fill:none;fill-opacity:1;stroke:#000000;stroke-width:22.5;stroke-dasharray:none;stroke-opacity:1"
             d="m 334.95817,289.07455 -71.99633,-73.6326"
             id="path21501"
             sodipodi:nodetypes="cc"
             inkscape:label="Rectangle" />
          <path
             style="mix-blend-mode:normal;fill:none;fill-opacity:1;stroke:#000000;stroke-width:22.5;stroke-dasharray:none;stroke-opacity:1"
             d="m 269.94857,348.51878 -71.99633,-73.6326"
             id="path21503"
             sodipodi:nodetypes="cc"
             inkscape:label="Rectangle" />
          <path
             style="mix-blend-mode:normal;fill:none;fill-opacity:1;stroke:#000000;stroke-width:22.5;stroke-dasharray:none;stroke-opacity:1"
             d="m 305.58494,322.13861 -71.99633,-73.6326"
             id="path21505"
             sodipodi:nodetypes="cc"
             inkscape:label="Rectangle" />
          <path
             style="mix-blend-mode:normal;fill:none;fill-opacity:1;stroke:#000000;stroke-width:22.5;stroke-dasharray:none;stroke-opacity:1"
             d="M 346.37833,137.54357 274.382,63.910979"
             id="path21507"
             sodipodi:nodetypes="cc"
             inkscape:label="Rectangle" />
          <path
             style="mix-blend-mode:normal;fill:none;fill-opacity:1;stroke:#000000;stroke-width:22.5;stroke-dasharray:none;stroke-opacity:1"
             d="M 375.15519,103.60969 303.15886,29.977088"
             id="path21509"
             sodipodi:nodetypes="cc"
             inkscape:label="Rectangle"
             mask="none" />
          <path
             style="mix-blend-mode:normal;fill:none;fill-opacity:1;stroke:#000000;stroke-width:22.5;stroke-dasharray:none;stroke-opacity:1"
             d="M 317.68412,171.7915 245.68779,98.15891"
             id="path21511"
             sodipodi:nodetypes="cc"
             inkscape:label="Rectangle" />
        </g>
      </g>
    </mask>
  </defs>
  <sodipodi:namedview
     id="namedview11"
     pagecolor="#101921"
     bordercolor="#000000"
     borderopacity="0.25"
     inkscape:showpageshadow="2"
     inkscape:pageopacity="0"
     inkscape:pagecheckerboard="0"
     inkscape:deskcolor="#d1d1d1"
     showgrid="false"
     inkscape:zoom="1"
     inkscape:cx="411"
     inkscape:cy="481"
     inkscape:window-width="2560"
     inkscape:window-height="1377"
     inkscape:window-x="-8"
     inkscape:window-y="-8"
     inkscape:window-maximized="1"
     inkscape:current-layer="svg9"
     showguides="false" />
  <linearGradient
     id="a"
     gradientUnits="userSpaceOnUse"
     x1="0.004404"
     x2="253.2644"
     y1="145.25301"
     y2="145.25301">
    <stop
       offset="0"
       stop-color="#0cf"
       id="stop2" />
    <stop
       offset="1"
       stop-color="#3f9"
       id="stop4" />
  </linearGradient>
  <path
     d="M 0,290.5 202.8,205.1 138.6,140 Z M 74.5,75 138.7,140 253.3,0 Z"
     fill="url(#a)"
     fill-rule="nonzero"
     transform="matrix(1.7571843,0,0,1.7571843,24.91115,23.611881)"
     id="path7"
     style="fill:#000000;fill-opacity:1"
     inkscape:label="Logo"
     mask="url(#mask21497)" />
  <g
     id="path1703"
     inkscape:label="Line Long">
    <path
       style="color:#000000;fill:#33ff99;stroke-miterlimit:2"
       d="M 483.41602,4.1875 266.48633,266.60352 1.4355469,553.52344 6.9902344,558.6543 272.11133,271.6582 a 3.7815781,3.7815781 0 0 0 0.13672,-0.15625 L 489.24609,9.0058594 Z"
       id="path7469" />
    <g
       id="g7453">
      <path
         style="color:#000000;fill:#33ff99;stroke-linecap:round;stroke-miterlimit:2"
         d="m 487.17773,1.375 -31.93945,3.03125 a 3.7811999,3.7811999 0 0 0 -3.4082,4.1210938 3.7811999,3.7811999 0 0 0 4.12109,3.4062502 L 484.12891,9.2617188 486.80273,37.4375 a 3.7811999,3.7811999 0 0 0 4.1211,3.40625 3.7811999,3.7811999 0 0 0 3.40625,-4.121094 L 491.30078,4.78125 A 3.7815781,3.7815781 0 0 0 487.17773,1.375 Z"
         id="path7463" />
      <g
         id="path7455">
        <path
           style="color:#000000;fill:#33ff99;fill-rule:evenodd;stroke-width:0.667271pt;stroke-miterlimit:2"
           d="m 6.4764879,553.63855 c 1.3527886,1.24968 1.4364712,3.36182 0.1867914,4.71461 -1.2496798,1.35279 -3.3618281,1.43647 -4.7146166,0.18679 -1.35278864,-1.24968 -1.4093042,-3.39123 -0.1867914,-4.71461 1.2496798,-1.35279 3.3618281,-1.43647 4.7146166,-0.18679 z"
           id="path7459" />
        <path
           style="color:#000000;fill:#33ff99;fill-rule:evenodd;stroke-miterlimit:2"
           d="m 4.0625,552.31445 c -0.9679836,0.0384 -1.9204526,0.44419 -2.6269531,1.20899 -1.38946298,1.5041 -1.32338276,3.92637 0.2109375,5.34375 1.5295848,1.413 3.9307489,1.31669 5.34375,-0.21289 1.4130001,-1.52959 1.3186469,-3.9288 -0.2109375,-5.3418 C 6.0145045,552.606 5.0304836,552.2761 4.0625,552.31445 Z m 0.035156,0.88282 c 0.738706,-0.0293 1.4881772,0.2244 2.0761719,0.76757 1.1759901,1.08636 1.2484664,2.90995 0.1621094,4.08594 -1.086356,1.17599 -2.909948,1.24847 -4.0859375,0.16211 -1.1712543,-1.08198 -1.2176696,-2.94328 -0.1621094,-4.08594 0.543178,-0.58799 1.2710597,-0.90042 2.0097656,-0.92968 z"
           id="path7461" />
      </g>
    </g>
  </g>
  <g
     id="path5114"
     inkscape:label="Line Short">
    <path
       style="color:#000000;fill:#33ff99;stroke-miterlimit:2;-inkscape-stroke:none"
       d="m 134.09375,127.62109 -5.4082,5.28711 136.11718,139.20899 a 3.7815781,3.7815781 0 0 0 0.0274,0.0273 l 136.11523,136.42578 5.35352,-5.34179 -136.10156,-136.41211 z"
       id="path7489" />
    <g
       id="g7473">
      <path
         style="color:#000000;fill:#33ff99;stroke-linecap:round;stroke-miterlimit:2;-inkscape-stroke:none"
         d="m 130.11133,125.13086 a 3.7815781,3.7815781 0 0 0 -3.82422,3.73828 l -0.36133,32.08398 a 3.7811999,3.7811999 0 0 0 3.74024,3.82227 3.7811999,3.7811999 0 0 0 3.82226,-3.73828 l 0.31836,-28.30078 28.30078,0.31836 a 3.7811999,3.7811999 0 0 0 3.82422,-3.73828 3.7811999,3.7811999 0 0 0 -3.73828,-3.82422 z"
         id="path7483" />
      <g
         id="path7475">
        <path
           style="color:#000000;fill:#33ff99;fill-rule:evenodd;stroke-width:0.667271pt;stroke-miterlimit:2;-inkscape-stroke:none"
           d="m 401.26586,403.53799 c 1.30373,-1.30078 3.41754,-1.29838 4.71831,0.005 1.30078,1.30373 1.29838,3.41754 -0.005,4.71831 -1.30373,1.30078 -3.44582,1.27004 -4.71831,-0.005 -1.30078,-1.30373 -1.29838,-3.41754 0.005,-4.71831 z"
           id="path7479" />
        <path
           style="color:#000000;fill:#33ff99;fill-rule:evenodd;stroke-miterlimit:2;-inkscape-stroke:none"
           d="m 403.62695,402.12109 c -0.96873,-10e-4 -1.93872,0.36618 -2.67578,1.10157 -1.47374,1.47079 -1.47664,3.87354 -0.006,5.34765 1.44629,1.44919 3.86898,1.4812 5.34766,0.006 1.47374,-1.47079 1.47664,-3.87354 0.006,-5.34765 -0.7354,-0.73688 -1.70315,-1.10638 -2.67188,-1.10743 z m -0.002,0.88477 c 0.7393,8e-4 1.47955,0.28506 2.04492,0.85156 1.13078,1.13334 1.12716,2.9591 -0.006,4.08985 -1.12878,1.12622 -2.9892,1.09502 -4.08789,-0.006 -1.13078,-1.13335 -1.12911,-2.95715 0.004,-4.08789 0.56667,-0.56539 1.30562,-0.84846 2.04492,-0.84766 z"
           id="path7481" />
      </g>
    </g>
  </g>
</svg>
